<mxfile host="Electron" agent="Mozilla/5.0 (Macintosh; Intel Mac OS X 10_15_7) AppleWebKit/537.36 (KHTML, like Gecko) draw.io/24.7.5 Chrome/126.0.6478.183 Electron/31.3.0 Safari/537.36" version="24.7.5">
  <diagram name="Page-1" id="eutrJQ1j7zYxperahDHh">
    <mxGraphModel dx="2603" dy="854" grid="1" gridSize="10" guides="1" tooltips="1" connect="1" arrows="1" fold="1" page="1" pageScale="1" pageWidth="1169" pageHeight="827" math="0" shadow="0">
      <root>
        <mxCell id="0" />
        <mxCell id="1" parent="0" />
        <mxCell id="OELMnIjKo6eVXtYPmC4g-2" value="REST API" style="rounded=0;whiteSpace=wrap;html=1;" vertex="1" parent="1">
          <mxGeometry x="180" y="367.5" width="90" height="115" as="geometry" />
        </mxCell>
        <mxCell id="OELMnIjKo6eVXtYPmC4g-3" value="DB" style="shape=cylinder3;whiteSpace=wrap;html=1;boundedLbl=1;backgroundOutline=1;size=15;" vertex="1" parent="1">
          <mxGeometry x="850" y="40" width="80" height="130" as="geometry" />
        </mxCell>
        <mxCell id="OELMnIjKo6eVXtYPmC4g-4" value="Postgres" style="text;html=1;align=center;verticalAlign=middle;whiteSpace=wrap;rounded=0;" vertex="1" parent="1">
          <mxGeometry x="850" y="180" width="80" height="30" as="geometry" />
        </mxCell>
        <mxCell id="OELMnIjKo6eVXtYPmC4g-5" value="Customers data:&lt;div&gt;- role (admin/user)&lt;/div&gt;&lt;div&gt;- name&lt;/div&gt;&lt;div&gt;- membership (subscriptions)&lt;/div&gt;&lt;div&gt;- image&lt;/div&gt;&lt;div&gt;- description&lt;/div&gt;&lt;div&gt;- badges&lt;/div&gt;" style="text;html=1;align=left;verticalAlign=middle;whiteSpace=wrap;rounded=0;strokeColor=default;" vertex="1" parent="1">
          <mxGeometry x="810" y="220" width="170" height="140" as="geometry" />
        </mxCell>
        <mxCell id="OELMnIjKo6eVXtYPmC4g-6" style="edgeStyle=orthogonalEdgeStyle;rounded=0;orthogonalLoop=1;jettySize=auto;html=1;exitX=0.5;exitY=1;exitDx=0;exitDy=0;" edge="1" parent="1" source="OELMnIjKo6eVXtYPmC4g-5" target="OELMnIjKo6eVXtYPmC4g-5">
          <mxGeometry relative="1" as="geometry" />
        </mxCell>
        <mxCell id="OELMnIjKo6eVXtYPmC4g-37" style="edgeStyle=orthogonalEdgeStyle;rounded=0;orthogonalLoop=1;jettySize=auto;html=1;" edge="1" parent="1" source="OELMnIjKo6eVXtYPmC4g-10" target="OELMnIjKo6eVXtYPmC4g-16">
          <mxGeometry relative="1" as="geometry" />
        </mxCell>
        <mxCell id="OELMnIjKo6eVXtYPmC4g-10" value="Validation Service" style="rounded=0;whiteSpace=wrap;html=1;" vertex="1" parent="1">
          <mxGeometry x="475" y="360" width="120" height="130" as="geometry" />
        </mxCell>
        <mxCell id="OELMnIjKo6eVXtYPmC4g-14" value="Authorisation data:&lt;div&gt;- role (admin/user)&lt;/div&gt;&lt;div&gt;&lt;br&gt;&lt;/div&gt;" style="text;html=1;align=left;verticalAlign=middle;whiteSpace=wrap;rounded=0;strokeColor=default;" vertex="1" parent="1">
          <mxGeometry x="810" y="390" width="170" height="70" as="geometry" />
        </mxCell>
        <mxCell id="OELMnIjKo6eVXtYPmC4g-16" value="Auth Service (JWT)" style="rounded=0;whiteSpace=wrap;html=1;" vertex="1" parent="1">
          <mxGeometry x="475" y="550" width="120" height="130" as="geometry" />
        </mxCell>
        <mxCell id="OELMnIjKo6eVXtYPmC4g-17" value="" style="endArrow=classic;startArrow=classic;html=1;rounded=0;entryX=0;entryY=0.5;entryDx=0;entryDy=0;exitX=1;exitY=0.5;exitDx=0;exitDy=0;" edge="1" parent="1" source="OELMnIjKo6eVXtYPmC4g-10" target="OELMnIjKo6eVXtYPmC4g-14">
          <mxGeometry width="50" height="50" relative="1" as="geometry">
            <mxPoint x="450" y="340" as="sourcePoint" />
            <mxPoint x="500" y="290" as="targetPoint" />
          </mxGeometry>
        </mxCell>
        <mxCell id="OELMnIjKo6eVXtYPmC4g-19" value="" style="endArrow=classic;startArrow=classic;html=1;rounded=0;exitX=1;exitY=0.5;exitDx=0;exitDy=0;entryX=0;entryY=0.5;entryDx=0;entryDy=0;" edge="1" parent="1" source="OELMnIjKo6eVXtYPmC4g-2" target="OELMnIjKo6eVXtYPmC4g-10">
          <mxGeometry width="50" height="50" relative="1" as="geometry">
            <mxPoint x="450" y="340" as="sourcePoint" />
            <mxPoint x="500" y="290" as="targetPoint" />
          </mxGeometry>
        </mxCell>
        <mxCell id="OELMnIjKo6eVXtYPmC4g-21" value="GET" style="text;html=1;align=center;verticalAlign=middle;whiteSpace=wrap;rounded=0;" vertex="1" parent="1">
          <mxGeometry x="680" y="390" width="60" height="30" as="geometry" />
        </mxCell>
        <mxCell id="OELMnIjKo6eVXtYPmC4g-24" value="" style="endArrow=classic;startArrow=classic;html=1;rounded=0;exitX=0.5;exitY=1;exitDx=0;exitDy=0;entryX=0.5;entryY=0;entryDx=0;entryDy=0;" edge="1" parent="1" source="OELMnIjKo6eVXtYPmC4g-10" target="OELMnIjKo6eVXtYPmC4g-16">
          <mxGeometry width="50" height="50" relative="1" as="geometry">
            <mxPoint x="580" y="410" as="sourcePoint" />
            <mxPoint x="630" y="360" as="targetPoint" />
            <Array as="points" />
          </mxGeometry>
        </mxCell>
        <mxCell id="OELMnIjKo6eVXtYPmC4g-25" value="GET" style="text;html=1;align=center;verticalAlign=middle;whiteSpace=wrap;rounded=0;" vertex="1" parent="1">
          <mxGeometry x="540" y="510" width="60" height="30" as="geometry" />
        </mxCell>
        <mxCell id="OELMnIjKo6eVXtYPmC4g-26" value="Bearer &amp;lt;JWT&amp;gt;" style="text;html=1;align=center;verticalAlign=middle;whiteSpace=wrap;rounded=0;rotation=-20;" vertex="1" parent="1">
          <mxGeometry x="40" y="460" width="110" height="30" as="geometry" />
        </mxCell>
        <mxCell id="OELMnIjKo6eVXtYPmC4g-27" value="- Who can DELETE / POST / PUT&lt;div&gt;- Based on role limit request types&lt;/div&gt;&lt;div&gt;&lt;br&gt;&lt;/div&gt;&lt;div&gt;- Use test containers for DB&lt;/div&gt;&lt;div&gt;- Use migrations for DB&lt;/div&gt;&lt;div&gt;&lt;br&gt;&lt;/div&gt;&lt;div&gt;- None blocking (https://r2dbc.io/)&lt;/div&gt;&lt;div&gt;- Connection type&lt;/div&gt;&lt;div&gt;&lt;br&gt;&lt;/div&gt;&lt;div&gt;- Maven&lt;/div&gt;&lt;div&gt;&lt;br&gt;&lt;/div&gt;&lt;div&gt;- GOAL: Run locally&lt;br&gt;&lt;br&gt;- Unit/Integration tests&lt;/div&gt;&lt;div&gt;&lt;br&gt;&lt;/div&gt;&lt;div&gt;- Put on GitHub&lt;/div&gt;&lt;div&gt;- Think of GitHub actions (at least run tests in the pipeline)&lt;/div&gt;" style="text;html=1;align=left;verticalAlign=middle;whiteSpace=wrap;rounded=0;" vertex="1" parent="1">
          <mxGeometry x="-290" y="192.5" width="320" height="290" as="geometry" />
        </mxCell>
        <mxCell id="OELMnIjKo6eVXtYPmC4g-29" value="Client&lt;div&gt;&lt;br&gt;&lt;/div&gt;" style="shape=umlActor;verticalLabelPosition=bottom;verticalAlign=top;html=1;outlineConnect=0;" vertex="1" parent="1">
          <mxGeometry x="-90" y="490" width="30" height="60" as="geometry" />
        </mxCell>
        <mxCell id="OELMnIjKo6eVXtYPmC4g-34" value="" style="endArrow=classic;startArrow=classic;html=1;rounded=0;entryX=0;entryY=0.75;entryDx=0;entryDy=0;" edge="1" parent="1" source="OELMnIjKo6eVXtYPmC4g-29" target="OELMnIjKo6eVXtYPmC4g-16">
          <mxGeometry width="50" height="50" relative="1" as="geometry">
            <mxPoint x="310" y="410" as="sourcePoint" />
            <mxPoint x="360" y="360" as="targetPoint" />
          </mxGeometry>
        </mxCell>
        <mxCell id="OELMnIjKo6eVXtYPmC4g-35" value="" style="endArrow=classic;startArrow=classic;html=1;rounded=0;exitX=1;exitY=0.3333333333333333;exitDx=0;exitDy=0;exitPerimeter=0;entryX=0;entryY=0.5;entryDx=0;entryDy=0;" edge="1" parent="1" source="OELMnIjKo6eVXtYPmC4g-29" target="OELMnIjKo6eVXtYPmC4g-2">
          <mxGeometry width="50" height="50" relative="1" as="geometry">
            <mxPoint x="310" y="410" as="sourcePoint" />
            <mxPoint x="360" y="360" as="targetPoint" />
          </mxGeometry>
        </mxCell>
        <mxCell id="OELMnIjKo6eVXtYPmC4g-36" value="GET" style="text;html=1;align=center;verticalAlign=middle;whiteSpace=wrap;rounded=0;" vertex="1" parent="1">
          <mxGeometry x="260" y="570" width="60" height="30" as="geometry" />
        </mxCell>
        <mxCell id="OELMnIjKo6eVXtYPmC4g-39" value="" style="endArrow=classic;startArrow=classic;html=1;rounded=0;exitX=1;exitY=0.25;exitDx=0;exitDy=0;entryX=0;entryY=0.25;entryDx=0;entryDy=0;" edge="1" parent="1" source="OELMnIjKo6eVXtYPmC4g-2" target="OELMnIjKo6eVXtYPmC4g-5">
          <mxGeometry width="50" height="50" relative="1" as="geometry">
            <mxPoint x="310" y="410" as="sourcePoint" />
            <mxPoint x="360" y="360" as="targetPoint" />
            <Array as="points">
              <mxPoint x="400" y="360" />
              <mxPoint x="540" y="255" />
            </Array>
          </mxGeometry>
        </mxCell>
        <mxCell id="OELMnIjKo6eVXtYPmC4g-40" value="GET / POST / PUT / DELETE" style="text;html=1;align=center;verticalAlign=middle;whiteSpace=wrap;rounded=0;" vertex="1" parent="1">
          <mxGeometry x="560" y="220" width="170" height="32" as="geometry" />
        </mxCell>
        <mxCell id="OELMnIjKo6eVXtYPmC4g-41" value="GET" style="text;html=1;align=center;verticalAlign=middle;whiteSpace=wrap;rounded=0;" vertex="1" parent="1">
          <mxGeometry x="340" y="390" width="60" height="30" as="geometry" />
        </mxCell>
        <mxCell id="OELMnIjKo6eVXtYPmC4g-42" value="Bearer &amp;lt;JWT&amp;gt;" style="text;html=1;align=center;verticalAlign=middle;whiteSpace=wrap;rounded=0;rotation=0;" vertex="1" parent="1">
          <mxGeometry x="585" y="270" width="110" height="30" as="geometry" />
        </mxCell>
        <mxCell id="OELMnIjKo6eVXtYPmC4g-44" value="" style="rounded=0;whiteSpace=wrap;html=1;fillColor=none;dashed=1;" vertex="1" parent="1">
          <mxGeometry x="760" y="17" width="270" height="470" as="geometry" />
        </mxCell>
        <mxCell id="OELMnIjKo6eVXtYPmC4g-43" value="Validate the token" style="text;html=1;align=center;verticalAlign=middle;resizable=0;points=[];autosize=1;strokeColor=none;fillColor=none;" vertex="1" parent="1">
          <mxGeometry x="310" y="439.5" width="120" height="30" as="geometry" />
        </mxCell>
      </root>
    </mxGraphModel>
  </diagram>
</mxfile>
